PathFileType	4	(X/Y/Z)	D:\TRACE\spotREDO_2-26-24\spot_justArm_Motion_1_2-platform.trc
DataRate	CameraRate	NumFrames	NumMarkers	Units	OrigDataRate	OrigDataStartFrame	OrigNumFrames
100.00	100.00	      76	5	mm	100.00	1	      7000
Frame#	Time	Left_Front			Right_Front			Left_Aft			Right_Aft			Post			
		X1	Y1	Z1	X2	Y2	Z2	X3	Y3	Z3	X4	Y4	Z4	X5	Y5	Z5	

1	0.000	-696.78442	-4.12232	-575.62378	717.84070	5.09789	-491.34494	-768.15607	5.08277	643.58539	801.62408	11.80135	648.06793	12.38721	623.21484	-982.71216	
2	0.010	-697.00134	-3.87400	-575.61713	717.83063	5.05341	-491.27551	-768.23108	4.88722	643.49561	801.14124	11.35593	647.76782	12.45075	623.24677	-982.76904	
3	0.020	-697.00098	-3.87637	-575.60468	717.84058	5.13299	-491.32474	-768.21161	4.83919	643.45227	801.14026	11.34571	647.70752	12.38103	623.25696	-982.73242	
4	0.030	-697.00623	-3.85186	-575.60486	717.86072	5.11125	-491.29114	-768.19733	4.87171	643.47034	801.12323	11.29719	647.70056	12.32177	623.28619	-982.75287	
5	0.040	-697.01794	-3.84553	-575.59479	717.84277	5.10029	-491.28448	-768.12573	5.08613	643.64459	801.16406	11.35958	647.79510	12.33420	623.28937	-982.75299	
6	0.050	-697.00098	-3.87273	-575.59845	717.83948	5.10686	-491.34827	-768.45563	5.27763	643.29468	801.17584	11.37002	647.77826	12.38708	623.32880	-982.72192	
7	0.060	-697.02167	-3.87378	-575.59094	717.82391	5.07255	-491.30597	-768.38586	5.28395	643.40381	801.17938	11.37985	647.81744	12.31351	623.22473	-982.72559	
8	0.070	-697.00793	-3.84394	-575.60010	717.84064	5.10008	-491.34076	-768.32941	5.14445	643.47388	801.27271	11.44207	647.80475	12.33729	623.21930	-982.68018	
9	0.080	-696.96851	-3.87258	-575.62878	717.87396	5.13494	-491.31723	-768.28174	5.30018	643.58215	801.22089	11.43951	647.80157	12.33614	623.22400	-982.69543	
10	0.090	-697.02917	-3.87962	-575.59253	717.84406	5.09221	-491.30106	-768.24548	5.20532	643.58630	801.24927	11.43959	647.84082	12.33590	623.19904	-982.68634	
11	0.100	-696.99017	-3.86771	-575.59283	717.82520	5.05784	-491.19608	-768.21088	5.20439	643.54211	801.14673	11.36054	647.79785	12.31472	623.21350	-982.69568	
12	0.110	-697.01978	-3.88265	-575.58954	717.88068	5.08087	-491.25604	-768.29126	5.06731	643.39734	801.16272	11.37020	647.80792	12.29765	623.19757	-982.72937	
13	0.120	-696.99225	-3.86859	-575.59424	717.86652	5.06783	-491.23297	-768.34705	5.16003	643.39856	801.26184	11.43635	647.82416	12.27982	623.22284	-982.73895	
14	0.130	-696.99976	-3.84019	-575.58643	717.87573	5.06398	-491.26202	-768.34717	5.10936	643.34528	801.24316	11.40578	647.78687	12.30157	623.22131	-982.67175	
15	0.140	-697.02386	-3.87162	-575.59662	717.82727	5.11703	-491.31741	-768.29907	5.22763	643.42926	801.21326	11.41504	647.83020	12.32370	623.21906	-982.72913	
16	0.150	-696.99579	-3.89310	-575.61005	717.85815	5.06520	-491.26538	-768.25348	5.14709	643.43231	801.20123	11.40385	647.80493	12.32745	623.22888	-982.68909	
17	0.160	-697.01648	-3.89329	-575.58215	717.85364	5.08116	-491.31180	-768.29211	4.97120	643.29126	801.12366	11.36161	647.81512	12.34896	623.17188	-982.71466	
18	0.170	-697.00409	-3.85712	-575.61499	717.82239	5.09721	-491.27802	-768.22052	5.12070	643.40759	801.20624	11.44132	647.83240	12.31357	623.20868	-982.68640	
19	0.180	-696.99567	-3.85533	-575.61499	717.89435	5.05902	-491.31262	-768.27728	4.96116	643.34106	801.28027	11.45532	647.83618	12.36774	623.20642	-982.70667	
20	0.190	-697.01007	-3.83043	-575.59015	717.89618	5.11088	-491.23816	-768.27527	4.96847	643.30609	801.28705	11.41043	647.77850	12.40790	623.23743	-982.72937	
21	0.200	-696.99823	-3.88139	-575.57251	717.87872	5.04356	-491.27274	-768.29419	4.94414	643.32227	801.24292	11.37782	647.81213	12.36640	623.24731	-982.71344	
22	0.210	-696.99554	-3.90172	-575.59729	717.88202	5.13137	-491.32303	-768.29132	4.92629	643.31030	801.19073	11.08728	647.49640	12.33183	623.23590	-982.67651	
23	0.220	-697.01996	-3.87422	-575.59247	717.85162	5.08960	-491.28717	-768.26642	4.94959	643.32098	801.20264	11.38822	647.80872	12.34368	623.19678	-982.73236	
24	0.230	-697.03320	-3.82681	-575.60468	717.81049	5.11393	-491.32196	-768.19012	5.09759	643.41809	801.22302	11.43060	647.82690	12.32072	623.20563	-982.72937	
25	0.240	-697.02826	-3.83930	-575.61011	717.89032	5.11852	-491.29132	-768.27710	5.15210	643.42352	801.26654	11.43811	647.80060	12.31442	623.21136	-982.71521	
26	0.250	-697.02728	-3.84676	-575.60638	717.86121	5.09095	-491.28262	-768.26709	5.15731	643.44916	801.20142	11.39957	647.82306	12.36629	623.19409	-982.69934	
27	0.260	-697.04669	-3.84417	-575.59302	717.91064	5.12603	-491.24060	-768.28241	4.99716	643.35773	801.17969	11.34811	647.80084	12.32852	623.18658	-982.71191	
28	0.270	-697.01233	-3.90746	-575.59509	717.88983	5.08998	-491.22708	-768.30249	5.09498	643.32410	801.24182	11.38847	647.82690	12.30936	623.18781	-982.73761	
29	0.280	-696.99731	-3.86549	-575.58862	717.86230	5.04824	-491.22659	-768.31244	5.06805	643.33551	801.20435	11.40008	647.79688	12.35251	623.18658	-982.70801	
30	0.290	-696.98199	-3.87756	-575.57587	717.87109	5.06259	-491.28540	-768.34149	5.09168	643.32587	801.19952	11.35411	647.79889	12.34704	623.19983	-982.71887	
31	0.300	-696.98730	-3.87580	-575.61096	717.81573	5.07704	-491.34372	-768.29816	5.28454	643.46112	801.17023	11.34346	647.78522	12.30560	623.22015	-982.73279	
32	0.310	-697.01013	-3.87506	-575.61707	717.81995	5.08921	-491.28680	-768.27936	5.22799	643.45520	801.10681	11.33704	647.79956	12.33563	623.23560	-982.73401	
33	0.320	-697.02405	-3.84945	-575.60345	717.83649	5.09605	-491.30078	-768.35065	5.13189	643.35199	801.12341	11.30085	647.79126	12.32536	623.20770	-982.70062	
34	0.330	-697.01447	-3.87736	-575.57831	717.86340	5.09389	-491.28473	-768.33368	5.09623	643.35126	801.13776	11.34693	647.79138	12.35665	623.20410	-982.68848	
35	0.340	-696.99768	-3.88370	-575.61194	717.88251	5.08635	-491.30524	-768.32361	5.10337	643.35907	801.30383	11.42791	647.83655	12.29521	623.20068	-982.69800	
36	0.350	-697.01044	-3.85436	-575.58704	717.90729	5.06042	-491.29541	-768.31653	5.31406	643.44128	801.32574	11.47570	647.79535	12.35386	623.19965	-982.64441	
37	0.360	-697.01416	-3.84017	-575.60962	717.88593	5.05898	-491.22031	-768.32404	5.14284	643.37592	801.26587	11.46803	647.80493	12.31669	623.21466	-982.67804	
38	0.370	-697.00220	-3.88088	-575.59204	717.88269	5.07801	-491.24548	-768.35675	5.15436	643.36627	801.21570	11.38711	647.78497	12.31851	623.18762	-982.68536	
39	0.380	-696.98474	-3.86574	-575.61914	717.80371	5.13826	-491.27502	-768.31134	5.28878	643.44684	801.14990	11.34533	647.77472	12.31979	623.22180	-982.72528	
40	0.390	-696.98730	-3.85943	-575.60431	717.79218	5.12075	-491.28888	-768.34662	5.09150	643.36707	801.12677	11.36262	647.77667	12.32153	623.21924	-982.68475	
41	0.400	-696.98535	-3.86320	-575.62177	717.87354	5.11516	-491.25763	-768.33154	5.35873	643.47156	801.27802	11.45356	647.82111	12.34714	623.20728	-982.71619	
42	0.410	-697.01691	-3.87267	-575.58844	717.85498	5.09985	-491.29605	-768.32343	5.13062	643.36652	801.24371	11.42664	647.81818	12.30428	623.24872	-982.70563	
43	0.420	-696.99554	-3.85446	-575.59930	717.87238	5.07499	-491.29230	-768.30060	5.14227	643.35052	801.19507	11.37417	647.78076	12.34052	623.19702	-982.75299	
44	0.430	-696.99054	-3.86424	-575.58203	717.89978	5.08307	-491.23892	-768.33008	5.08332	643.35040	801.28802	11.43497	647.80646	12.35098	623.22943	-982.69745	
45	0.440	-696.97900	-3.90045	-575.58844	717.85370	5.05361	-491.27155	-768.35199	5.11448	643.33234	801.23383	11.41599	647.84076	12.30888	623.21313	-982.68311	
46	0.450	-696.97327	-3.89673	-575.63959	717.85931	5.08478	-491.33728	-768.34137	5.11422	643.31818	801.17474	11.39441	647.80414	12.31073	623.18701	-982.75500	
47	0.460	-696.97211	-3.91700	-575.62714	717.86835	5.07936	-491.30386	-768.34314	5.13721	643.33569	801.17786	11.41257	647.83423	12.31848	623.20917	-982.70538	
48	0.470	-696.98114	-3.84818	-575.60327	717.82410	5.10926	-491.33096	-768.31946	5.11204	643.36035	801.22870	11.43283	647.83008	12.30484	623.22321	-982.69885	
49	0.480	-697.00769	-3.88998	-575.57251	717.85358	5.08553	-491.29977	-768.33582	5.30047	643.44489	801.18524	11.35631	647.80798	12.37447	623.20471	-982.67938	
50	0.490	-697.00415	-3.88650	-575.56842	717.85120	5.05177	-491.25439	-768.34064	5.08727	643.37006	801.17914	11.34742	647.79559	12.35055	623.19720	-982.69904	
51	0.500	-696.97571	-3.90480	-575.60449	717.86847	5.08137	-491.20139	-768.33533	5.11377	643.35657	801.27161	11.42538	647.81256	12.36782	623.22284	-982.67828	
52	0.510	-697.01886	-3.87608	-575.60785	717.85394	5.07724	-491.27209	-768.30316	5.09772	643.35565	801.27533	11.44985	647.83691	12.31658	623.22650	-982.69067	
53	0.520	-697.02094	-3.85163	-575.58698	717.86676	5.10676	-491.27213	-768.25568	5.25490	643.45563	801.21710	11.37781	647.80713	12.34149	623.23022	-982.70233	
54	0.530	-696.96924	-3.87219	-575.61877	717.83295	5.12756	-491.28662	-768.29468	5.29178	643.45728	801.15778	11.37076	647.80890	12.32597	623.21021	-982.70502	
55	0.540	-697.01447	-3.85494	-575.60510	717.85394	5.10173	-491.28656	-768.31927	5.13380	643.38672	801.18188	11.37314	647.78479	12.32453	623.22113	-982.71863	
56	0.550	-696.98798	-3.86211	-575.60986	717.83978	5.09654	-491.28809	-768.33630	5.12717	643.30487	801.18823	11.41578	647.79193	12.29378	623.19751	-982.74329	
57	0.560	-696.98926	-3.85056	-575.59949	717.88239	5.08217	-491.28500	-768.40643	5.12045	643.37415	801.24030	11.44547	647.79370	12.33123	623.19189	-982.71570	
58	0.570	-697.01001	-3.87495	-575.60931	717.85553	5.11651	-491.24493	-768.35028	5.15610	643.34802	801.30176	11.45987	647.77960	12.43385	623.19635	-982.66821	
59	0.580	-696.96045	-3.89029	-575.58850	717.85364	5.04403	-491.23441	-768.36365	5.15789	643.38654	801.21063	11.38036	647.76611	12.36173	623.21716	-982.68335	
60	0.590	-697.02155	-3.87996	-575.58478	717.87207	5.04819	-491.30267	-768.31775	5.13672	643.38867	801.23456	11.37880	647.81030	12.37074	623.23590	-982.74268	
61	0.600	-696.99121	-3.85682	-575.60309	717.86084	5.08881	-491.30963	-768.33704	5.10819	643.36981	801.16699	11.35482	647.76862	12.36174	623.22430	-982.70697	
62	0.610	-696.98688	-3.84682	-575.62592	717.80841	5.09613	-491.26413	-768.33905	5.07779	643.35339	801.15228	11.36971	647.78131	12.33189	623.22113	-982.70593	
63	0.620	-696.99860	-3.81776	-575.61078	717.88403	5.11347	-491.31851	-768.32416	5.13494	643.38745	801.28290	11.42606	647.79303	12.42763	623.23267	-982.70172	
64	0.630	-696.99683	-3.86902	-575.61902	717.88599	5.05795	-491.29974	-768.36102	5.16215	643.33600	801.29095	11.44581	647.83990	12.33642	623.23279	-982.68542	
65	0.640	-696.99915	-3.86383	-575.58838	717.86877	5.11093	-491.31705	-768.31598	5.16894	643.38422	801.22748	11.39923	647.79340	12.35375	623.23029	-982.68866	
66	0.650	-696.99829	-3.91057	-575.59271	717.87720	5.05300	-491.24908	-768.31335	5.07917	643.37665	801.25873	11.39287	647.78491	12.34757	623.21307	-982.68011	
67	0.660	-696.99939	-3.87286	-575.58350	717.85022	5.07635	-491.27707	-768.33246	5.06522	643.39832	801.23682	11.39132	647.81036	12.40537	623.23944	-982.72949	
68	0.670	-696.98779	-3.86716	-575.58124	717.80176	5.08081	-491.31696	-768.34241	5.15596	643.37915	801.26532	11.43221	647.80817	12.34552	623.19043	-982.70276	
69	0.680	-696.99573	-3.85368	-575.63416	717.82855	5.09144	-491.32477	-768.33795	5.15770	643.36816	801.18457	11.38901	647.78888	12.41329	623.22705	-982.73230	
70	0.690	-697.03040	-3.86153	-575.58948	717.80597	5.09424	-491.34201	-768.32825	5.31411	643.46680	801.17926	11.36752	647.80255	12.37242	623.18140	-982.75165	
71	0.700	-697.02484	-3.85968	-575.58868	717.82574	5.08605	-491.31509	-768.30884	5.09884	643.38605	801.12006	11.36142	647.80939	12.36289	623.20892	-982.74097	
72	0.710	-696.99200	-3.85367	-575.59204	717.85083	5.10818	-491.32272	-768.28674	5.10120	643.38165	801.25189	11.40136	647.79150	12.30864	623.20050	-982.75092	
73	0.720	-696.98328	-3.84321	-575.60553	717.87732	5.08266	-491.30615	-768.34064	5.08450	643.41180	801.25836	11.39847	647.82831	12.33229	623.22675	-982.74414	
74	0.730	-697.02112	-3.82960	-575.60413	717.87360	5.09736	-491.29980	-768.30225	5.11672	643.38654	801.24963	11.41598	647.78003	12.37805	623.18567	-982.73352	
75	0.740	-697.02405	-3.83507	-575.58691	717.87671	5.10248	-491.30310	-768.32190	5.07639	643.42969	801.25519	11.44937	647.81757	12.45240	623.22754	-982.70532	
76	0.750	-697.01404	-3.84015	-575.61200	717.81854	5.11143	-491.25403	-768.31329	5.29539	643.55206	801.22809	11.40751	647.80902	12.44358	623.21075	-982.76563	
